<svg width="32" height="32" viewBox="0 0 32 32" fill="none" xmlns="http://www.w3.org/2000/svg">
<path d="M19.6265 11.7203L13.9065 17.4537L11.7065 15.2537C11.587 15.1141 11.4399 15.0007 11.2745 14.9207C11.109 14.8407 10.9289 14.7957 10.7452 14.7886C10.5616 14.7815 10.3785 14.8124 10.2074 14.8795C10.0363 14.9465 9.88092 15.0482 9.75098 15.1781C9.62104 15.3081 9.51936 15.4635 9.45233 15.6346C9.38529 15.8057 9.35435 15.9888 9.36145 16.1724C9.36854 16.356 9.41351 16.5362 9.49354 16.7016C9.57357 16.867 9.68693 17.0141 9.82651 17.1337L12.9598 20.2803C13.0844 20.4039 13.2322 20.5017 13.3946 20.568C13.5571 20.6344 13.731 20.668 13.9065 20.667C14.2563 20.6655 14.5915 20.5267 14.8398 20.2803L21.5065 13.6137C21.6315 13.4897 21.7307 13.3422 21.7984 13.1798C21.8661 13.0173 21.9009 12.843 21.9009 12.667C21.9009 12.491 21.8661 12.3167 21.7984 12.1542C21.7307 11.9917 21.6315 11.8443 21.5065 11.7203C21.2567 11.472 20.9188 11.3326 20.5665 11.3326C20.2143 11.3326 19.8763 11.472 19.6265 11.7203ZM15.9998 2.66699C13.3628 2.66699 10.7849 3.44898 8.59224 4.91406C6.39958 6.37915 4.69062 8.46153 3.68145 10.8979C2.67228 13.3342 2.40824 16.0151 2.92271 18.6015C3.43718 21.1879 4.70705 23.5637 6.57175 25.4284C8.43645 27.2931 10.8122 28.563 13.3986 29.0775C15.9851 29.5919 18.6659 29.3279 21.1023 28.3187C23.5386 27.3096 25.621 25.6006 27.0861 23.4079C28.5512 21.2153 29.3332 18.6374 29.3332 16.0003C29.3332 14.2494 28.9883 12.5156 28.3182 10.8979C27.6482 9.2802 26.666 7.81035 25.4279 6.57224C24.1898 5.33412 22.72 4.35199 21.1023 3.68193C19.4846 3.01187 17.7508 2.66699 15.9998 2.66699ZM15.9998 26.667C13.8902 26.667 11.8279 26.0414 10.0738 24.8693C8.31964 23.6973 6.95246 22.0314 6.14513 20.0823C5.33779 18.1332 5.12656 15.9885 5.53813 13.9194C5.94971 11.8502 6.96561 9.94961 8.45737 8.45785C9.94913 6.96609 11.8497 5.95019 13.9189 5.53862C15.988 5.12704 18.1327 5.33828 20.0818 6.14561C22.0309 6.95295 23.6968 8.32012 24.8689 10.0742C26.0409 11.8284 26.6665 13.8907 26.6665 16.0003C26.6665 18.8293 25.5427 21.5424 23.5423 23.5428C21.5419 25.5432 18.8288 26.667 15.9998 26.667Z" fill="white"/>
</svg>
