<svg width="16" height="16" viewBox="0 0 16 16" fill="none" xmlns="http://www.w3.org/2000/svg">
<path d="M8.93931 8.00012L13.1393 3.80679C13.2648 3.68125 13.3354 3.51099 13.3354 3.33346C13.3354 3.15592 13.2648 2.98566 13.1393 2.86012C13.0138 2.73459 12.8435 2.66406 12.666 2.66406C12.4884 2.66406 12.3182 2.73459 12.1926 2.86012L7.99931 7.06012L3.80597 2.86012C3.68044 2.73459 3.51018 2.66406 3.33264 2.66406C3.15511 2.66406 2.98484 2.73459 2.85931 2.86012C2.73377 2.98566 2.66325 3.15592 2.66325 3.33346C2.66325 3.51099 2.73377 3.68125 2.85931 3.80679L7.05931 8.00012L2.85931 12.1935C2.79682 12.2554 2.74723 12.3292 2.71338 12.4104C2.67954 12.4916 2.66211 12.5788 2.66211 12.6668C2.66211 12.7548 2.67954 12.8419 2.71338 12.9232C2.74723 13.0044 2.79682 13.0781 2.85931 13.1401C2.92128 13.2026 2.99502 13.2522 3.07626 13.2861C3.1575 13.3199 3.24463 13.3373 3.33264 13.3373C3.42065 13.3373 3.50779 13.3199 3.58903 13.2861C3.67027 13.2522 3.744 13.2026 3.80597 13.1401L7.99931 8.94012L12.1926 13.1401C12.2546 13.2026 12.3284 13.2522 12.4096 13.2861C12.4908 13.3199 12.578 13.3373 12.666 13.3373C12.754 13.3373 12.8411 13.3199 12.9224 13.2861C13.0036 13.2522 13.0773 13.2026 13.1393 13.1401C13.2018 13.0781 13.2514 13.0044 13.2852 12.9232C13.3191 12.8419 13.3365 12.7548 13.3365 12.6668C13.3365 12.5788 13.3191 12.4916 13.2852 12.4104C13.2514 12.3292 13.2018 12.2554 13.1393 12.1935L8.93931 8.00012Z" fill="white"/>
</svg>
