<svg width="28" height="28" viewBox="0 0 28 28" fill="none" xmlns="http://www.w3.org/2000/svg">
<path d="M13.9998 12.667C13.6462 12.667 13.3071 12.8075 13.057 13.0575C12.807 13.3076 12.6665 13.6467 12.6665 14.0003V19.3337C12.6665 19.6873 12.807 20.0264 13.057 20.2765C13.3071 20.5265 13.6462 20.667 13.9998 20.667C14.3535 20.667 14.6926 20.5265 14.9427 20.2765C15.1927 20.0264 15.3332 19.6873 15.3332 19.3337V14.0003C15.3332 13.6467 15.1927 13.3076 14.9427 13.0575C14.6926 12.8075 14.3535 12.667 13.9998 12.667ZM14.5065 7.44033C14.1819 7.30697 13.8178 7.30697 13.4932 7.44033C13.3295 7.50378 13.18 7.59894 13.0532 7.72033C12.9354 7.84993 12.8407 7.99875 12.7732 8.16033C12.6985 8.31856 12.662 8.49209 12.6665 8.66699C12.6655 8.84247 12.6991 9.01642 12.7655 9.17887C12.8318 9.34132 12.9296 9.48907 13.0532 9.61366C13.1828 9.73143 13.3316 9.82614 13.4932 9.89366C13.6952 9.97665 13.9145 10.0087 14.1318 9.98714C14.3491 9.96554 14.5578 9.89089 14.7395 9.76975C14.9212 9.64862 15.0703 9.4847 15.1739 9.29242C15.2774 9.10014 15.3321 8.88537 15.3332 8.66699C15.3283 8.31397 15.1902 7.97584 14.9465 7.72033C14.8197 7.59894 14.6702 7.50378 14.5065 7.44033ZM13.9998 0.666992C11.3628 0.666992 8.7849 1.44898 6.59224 2.91406C4.39958 4.37915 2.69062 6.46153 1.68145 8.89788C0.672281 11.3342 0.408237 14.0151 0.922706 16.6015C1.43718 19.1879 2.70705 21.5637 4.57175 23.4284C6.43645 25.2931 8.81223 26.563 11.3986 27.0775C13.9851 27.5919 16.6659 27.3279 19.1023 26.3187C21.5386 25.3096 23.621 23.6006 25.0861 21.4079C26.5512 19.2153 27.3332 16.6374 27.3332 14.0003C27.3332 12.2494 26.9883 10.5156 26.3182 8.89788C25.6482 7.2802 24.666 5.81035 23.4279 4.57224C22.1898 3.33412 20.72 2.35199 19.1023 1.68193C17.4846 1.01187 15.7508 0.666992 13.9998 0.666992ZM13.9998 24.667C11.8902 24.667 9.82788 24.0414 8.07376 22.8693C6.31964 21.6973 4.95246 20.0314 4.14513 18.0823C3.33779 16.1332 3.12656 13.9885 3.53813 11.9194C3.94971 9.85023 4.96561 7.94961 6.45737 6.45785C7.94913 4.96609 9.84975 3.95019 11.9189 3.53862C13.988 3.12704 16.1327 3.33828 18.0818 4.14561C20.0309 4.95295 21.6968 6.32012 22.8689 8.07424C24.0409 9.82837 24.6665 11.8907 24.6665 14.0003C24.6665 16.8293 23.5427 19.5424 21.5423 21.5428C19.5419 23.5432 16.8288 24.667 13.9998 24.667Z" fill="#343434"/>
</svg>
