<svg width="24" height="24" viewBox="0 0 24 24" fill="none" xmlns="http://www.w3.org/2000/svg">
<path d="M7.98924 3.49932C7.8584 3.63327 7.78516 3.81308 7.78516 4.00032C7.78516 4.18756 7.8584 4.36737 7.98924 4.50132L15.2987 11.9998L7.98924 19.4968C7.8584 19.6308 7.78516 19.8106 7.78516 19.9978C7.78516 20.185 7.8584 20.3649 7.98924 20.4988C8.05283 20.5641 8.12886 20.616 8.21285 20.6515C8.29684 20.6869 8.38707 20.7052 8.47824 20.7052C8.5694 20.7052 8.65963 20.6869 8.74362 20.6515C8.82761 20.616 8.90364 20.5641 8.96724 20.4988L16.7402 12.5233C16.8768 12.3833 16.9532 12.1954 16.9532 11.9998C16.9532 11.8042 16.8768 11.6164 16.7402 11.4763L8.96724 3.50082C8.90364 3.4355 8.82761 3.38359 8.74362 3.34814C8.65963 3.3127 8.5694 3.29443 8.47824 3.29443C8.38707 3.29443 8.29684 3.3127 8.21285 3.34814C8.12886 3.38359 8.05283 3.4355 7.98924 3.50082V3.49932Z" fill="#215044"/>
</svg>
