<svg width="50" height="52" viewBox="0 0 50 52" fill="none" xmlns="http://www.w3.org/2000/svg">
<path d="M48.9692 0L45.8307 1.04615C40.4519 2.91496 34.7082 3.48844 29.0661 2.72C23.1374 1.79994 17.0691 2.61752 11.5953 5.07385C8.69349 6.30947 6.14682 8.25131 4.18717 10.7226C2.22752 13.1938 0.917133 16.116 0.375314 19.2231C-0.175832 22.211 -0.119453 25.2794 0.541086 28.2451C1.20163 31.2108 2.45279 34.013 4.21993 36.4846C4.06301 37.0338 3.90608 37.5831 3.77531 38.1323C2.71305 42.6491 2.18635 47.2754 2.20608 51.9154H7.43685C7.6827 48.1174 8.19836 44.3417 8.97993 40.6169C12.6086 42.5764 16.6779 43.5757 20.8015 43.52C24.6473 43.5174 28.4536 42.7436 31.9953 41.2446C51.8984 32.7446 49.283 4.47231 49.283 3.29538L48.9692 0ZM29.9553 36.4323C23.1292 39.3354 14.9692 38.8385 10.3922 35.2554C11.1658 32.6688 12.2273 30.1773 13.5569 27.8277C14.5904 26.1366 15.8098 24.5664 17.1922 23.1462C18.6048 21.7108 20.1958 20.4627 21.9261 19.4323C25.5015 17.2944 29.4668 15.8896 33.5907 15.3V12.6846C28.8458 12.5204 24.1301 13.4886 19.8338 15.5092C15.441 17.6527 11.7157 20.953 9.05839 25.0554C8.07283 26.6222 7.19888 28.2565 6.44301 29.9462C5.23083 26.8452 4.88722 23.4724 5.44916 20.1908C5.81734 17.8932 6.76443 15.7273 8.2012 13.897C9.63796 12.0667 11.5171 10.6324 13.6615 9.72923C16.7885 8.26765 20.2006 7.51735 23.6522 7.53231C25.2738 7.53231 26.8692 7.68923 28.543 7.82C33.7851 8.49634 39.1074 8.18587 44.2353 6.90461C44.0522 14.1231 42.7445 30.9923 29.9553 36.4323Z" fill="#69BF8E"/>
</svg>
