<svg width="18" height="19" viewBox="0 0 18 19" fill="none" xmlns="http://www.w3.org/2000/svg">
<path d="M17.851 0.548828L16.7606 0.912853C14.8919 1.56313 12.8964 1.76268 10.9362 1.49529C8.87639 1.17514 6.76812 1.45963 4.86639 2.31435C3.85822 2.7443 2.97345 3.42 2.29262 4.27991C1.61179 5.13982 1.15653 6.15664 0.968284 7.23778C0.776802 8.27748 0.79639 9.34516 1.02588 10.3771C1.25537 11.4091 1.69005 12.3842 2.304 13.2442C2.24948 13.4353 2.19496 13.6264 2.14953 13.8175C1.78047 15.3892 1.59748 16.999 1.60434 18.6136H3.42164C3.50705 17.292 3.6862 15.9782 3.95774 14.6821C5.21843 15.3639 6.63221 15.7116 8.06483 15.6923C9.40098 15.6913 10.7234 15.4221 11.9539 14.9005C18.8687 11.9428 17.96 2.10503 17.96 1.69551L17.851 0.548828ZM11.2451 13.226C8.87353 14.2362 6.03855 14.0632 4.44841 12.8165C4.71716 11.9164 5.08596 11.0495 5.54788 10.2319C5.90697 9.64345 6.33061 9.09705 6.8109 8.60287C7.30166 8.10342 7.8544 7.66911 8.45555 7.31059C9.69774 6.56666 11.0754 6.07786 12.5081 5.87269V4.96263C10.8596 4.90547 9.22127 5.24239 7.72863 5.94549C6.20249 6.69133 4.90821 7.83974 3.985 9.26722C3.64259 9.81242 3.33896 10.3811 3.07635 10.969C2.65521 9.89002 2.53583 8.71641 2.73106 7.5745C2.85898 6.77505 3.18802 6.02137 3.68719 5.3845C4.18636 4.74763 4.83921 4.24854 5.58422 3.93426C6.67062 3.42568 7.85606 3.1646 9.05526 3.16981C9.61862 3.16981 10.1729 3.22441 10.7544 3.26991C12.5757 3.50526 14.4248 3.39722 16.2063 2.95139C16.1427 5.46316 15.6884 11.3331 11.2451 13.226Z" fill="#69BF8E"/>
</svg>
