<svg width="20" height="20" viewBox="0 0 20 20" fill="none" xmlns="http://www.w3.org/2000/svg">
<rect width="20" height="20" fill="#69BF8E"/>
<path d="M17.8616 2L16.8451 2.32242C15.1028 2.89837 13.2424 3.07512 11.4148 2.83829C9.49445 2.55473 7.52887 2.8067 5.75585 3.56373C4.81592 3.94454 3.99102 4.543 3.35627 5.30463C2.72152 6.06626 2.29707 6.96686 2.12157 7.92443C1.94305 8.8453 1.96131 9.79095 2.17526 10.705C2.38922 11.619 2.79449 12.4826 3.36688 13.2443C3.31605 13.4136 3.26522 13.5829 3.22287 13.7521C2.87879 15.1442 2.70818 16.57 2.71457 18H4.40888C4.48851 16.8295 4.65554 15.6658 4.9087 14.5179C6.08406 15.1218 7.40216 15.4298 8.73782 15.4126C9.98354 15.4118 11.2164 15.1733 12.3636 14.7113C18.8105 12.0917 17.9633 3.37834 17.9633 3.01562L17.8616 2ZM11.7029 13.2282C9.49179 14.1229 6.84868 13.9698 5.36616 12.8655C5.61672 12.0683 5.96056 11.3005 6.39121 10.5763C6.72601 10.0551 7.12097 9.5712 7.56875 9.1335C8.0263 8.69113 8.54163 8.30646 9.1021 7.98892C10.2602 7.33002 11.5446 6.89709 12.8804 6.71537V5.90932C11.3435 5.8587 9.81599 6.15711 8.42438 6.77985C7.00152 7.44044 5.79484 8.45759 4.93411 9.72191C4.61488 10.2048 4.33179 10.7085 4.08696 11.2292C3.69432 10.2735 3.58303 9.23406 3.76504 8.22267C3.8843 7.51459 4.19107 6.84705 4.65646 6.28298C5.12184 5.7189 5.73051 5.27685 6.4251 4.99849C7.43797 4.54804 8.54318 4.3168 9.66122 4.32141C10.1865 4.32141 10.7032 4.36977 11.2454 4.41008C12.9434 4.61852 14.6673 4.52284 16.3283 4.12796C16.269 6.35264 15.8454 11.5516 11.7029 13.2282Z" fill="white"/>
</svg>
