<svg width="84" height="44" viewBox="0 0 84 44" fill="none" xmlns="http://www.w3.org/2000/svg">
<path d="M83.851 13.5488L82.7606 13.9129C80.8919 14.5631 78.8964 14.7627 76.9362 14.4953C74.8764 14.1751 72.7681 14.4596 70.8664 15.3143C69.8582 15.7443 68.9734 16.42 68.2926 17.2799C67.6118 18.1398 67.1565 19.1566 66.9683 20.2378C66.7768 21.2775 66.7964 22.3452 67.0259 23.3771C67.2554 24.4091 67.6901 25.3842 68.304 26.2442C68.2495 26.4353 68.195 26.6264 68.1495 26.8175C67.7805 28.3892 67.5975 29.999 67.6043 31.6136H69.4216C69.507 30.292 69.6862 28.9782 69.9577 27.6821C71.2184 28.3639 72.6322 28.7116 74.0648 28.6923C75.401 28.6913 76.7234 28.4221 77.9539 27.9005C84.8687 24.9428 83.96 15.105 83.96 14.6955L83.851 13.5488ZM77.2451 26.226C74.8735 27.2362 72.0385 27.0632 70.4484 25.8165C70.7172 24.9164 71.086 24.0495 71.5479 23.2319C71.907 22.6434 72.3306 22.0971 72.8109 21.6029C73.3017 21.1034 73.8544 20.6691 74.4556 20.3106C75.6977 19.5667 77.0754 19.0779 78.5081 18.8727V17.9626C76.8596 17.9055 75.2213 18.2424 73.7286 18.9455C72.2025 19.6913 70.9082 20.8397 69.985 22.2672C69.6426 22.8124 69.339 23.3811 69.0764 23.969C68.6552 22.89 68.5358 21.7164 68.7311 20.5745C68.859 19.775 69.188 19.0214 69.6872 18.3845C70.1864 17.7476 70.8392 17.2485 71.5842 16.9343C72.6706 16.4257 73.8561 16.1646 75.0553 16.1698C75.6186 16.1698 76.1729 16.2244 76.7544 16.2699C78.5757 16.5053 80.4248 16.3972 82.2063 15.9514C82.1427 18.4632 81.6884 24.3331 77.2451 26.226Z" fill="#69BF8E"/>
<path d="M8.24429 30.0431H7.25056L7.28737 20.9523C7.45912 18.9403 8.17068 17.5785 9.42205 16.8669C9.81463 16.6461 10.2072 16.5357 10.5998 16.5357C11.6058 16.5357 12.3174 17.1368 12.7345 18.3391C12.9062 18.8789 12.9921 19.4923 12.9921 20.1794V28.0556C12.9921 29.0616 12.759 29.6628 12.2928 29.859C12.0229 29.9817 11.6181 30.0431 11.0783 30.0431V31H18.9177C18.9177 30.4602 18.7582 30.1535 18.4392 30.0799C18.292 30.0553 18.1448 30.0431 17.9976 30.0431H17.0407V20.7314V20.253C17.3106 18.4373 18.0344 17.2472 19.2121 16.6829C19.5311 16.5357 19.8501 16.4621 20.1691 16.4621C21.2978 16.4621 22.0829 17.0878 22.5246 18.3391C22.6963 18.9035 22.7822 19.5169 22.7822 20.1794V28.0556C22.7822 29.0616 22.5491 29.6628 22.0829 29.859C21.813 29.9817 21.4082 30.0431 20.8684 30.0431V31H29.1495C29.1495 30.4602 28.99 30.1535 28.671 30.0799C28.5238 30.0553 28.3766 30.0431 28.2293 30.0431H26.8308V20.5842C26.8308 18.1551 26.0211 16.4375 24.4016 15.4315C23.6655 14.9653 22.8681 14.7322 22.0093 14.7322C19.7029 14.7322 17.9731 15.8487 16.8198 18.0815C16.7708 18.1796 16.734 18.2655 16.7094 18.3391C16.1696 16.5234 15.1391 15.3825 13.6178 14.9163C13.2252 14.7936 12.8204 14.7322 12.4032 14.7322C10.244 14.7322 8.61234 15.6892 7.5082 17.603C7.41005 17.7993 7.3119 17.9956 7.21376 18.1919L7.02973 15.2475H0.846512V16.1676H3.20202V28.0556C3.20202 29.1352 2.79717 29.7609 1.98746 29.9327C1.66849 30.0063 1.28817 30.0431 0.846512 30.0431V31H9.12761C9.12761 30.4357 8.94359 30.129 8.57554 30.0799C8.47739 30.0553 8.36698 30.0431 8.24429 30.0431ZM39.1236 15.6892C40.6449 15.6892 41.5527 16.5848 41.8471 18.3759C41.9208 18.7685 41.9576 19.1734 41.9576 19.5905C41.9576 20.7437 41.5404 21.4675 40.7062 21.762C40.1664 21.9092 39.3812 21.9705 38.3507 21.946L35.5167 21.8356C35.6149 18.3514 36.535 16.3394 38.2771 15.7996C38.5715 15.726 38.8537 15.6892 39.1236 15.6892ZM45.8589 27.2827L44.9756 26.9883C44.264 28.5341 43.1353 29.5523 41.5895 30.0431C41.0742 30.2148 40.5467 30.3007 40.0069 30.3007C37.1361 30.3007 35.6394 27.8593 35.5167 22.9765C35.5167 22.952 35.5167 22.9275 35.5167 22.9029L39.234 22.9765C42.9145 23.0501 45.1228 22.5226 45.8589 21.3939C46.1042 21.0013 46.2269 20.5351 46.2269 19.9953C46.2269 18.057 45.2455 16.597 43.2825 15.6156C42.0557 15.0267 40.6694 14.7322 39.1236 14.7322C36.3019 14.7322 34.1427 15.7505 32.6459 17.787C31.5909 19.2347 31.0633 20.9891 31.0633 23.0501C31.0633 26.4117 32.3024 28.8162 34.7806 30.2639C36.1056 31 37.5901 31.368 39.234 31.368C42.0312 31.368 44.0554 30.3743 45.3068 28.3869C45.5276 28.0188 45.7117 27.6508 45.8589 27.2827ZM56.4955 15.6892C58.0168 15.6892 58.9246 16.5848 59.2191 18.3759C59.2927 18.7685 59.3295 19.1734 59.3295 19.5905C59.3295 20.7437 58.9123 21.4675 58.0781 21.762C57.5383 21.9092 56.7531 21.9705 55.7226 21.946L52.8886 21.8356C52.9868 18.3514 53.9069 16.3394 55.649 15.7996C55.9434 15.726 56.2256 15.6892 56.4955 15.6892ZM63.2308 27.2827L62.3475 26.9883C61.6359 28.5341 60.5072 29.5523 58.9614 30.0431C58.4462 30.2148 57.9186 30.3007 57.3788 30.3007C54.508 30.3007 53.0113 27.8593 52.8886 22.9765C52.8886 22.952 52.8886 22.9275 52.8886 22.9029L56.6059 22.9765C60.2864 23.0501 62.4947 22.5226 63.2308 21.3939C63.4762 21.0013 63.5988 20.5351 63.5988 19.9953C63.5988 18.057 62.6174 16.597 60.6544 15.6156C59.4276 15.0267 58.0413 14.7322 56.4955 14.7322C53.6738 14.7322 51.5146 15.7505 50.0178 17.787C48.9628 19.2347 48.4352 20.9891 48.4352 23.0501C48.4352 26.4117 49.6743 28.8162 52.1525 30.2639C53.4775 31 54.962 31.368 56.6059 31.368C59.4031 31.368 61.4273 30.3743 62.6787 28.3869C62.8995 28.0188 63.0836 27.6508 63.2308 27.2827Z" fill="#69BF8E"/>
</svg>
