<svg width="62" height="33" viewBox="0 0 62 33" fill="none" xmlns="http://www.w3.org/2000/svg">
<path d="M61.8922 9.83887L61.1004 10.1032C59.7434 10.5754 58.2943 10.7203 56.8708 10.5262C55.375 10.2937 53.844 10.5003 52.463 11.121C51.7309 11.4332 51.0884 11.9239 50.594 12.5483C50.0996 13.1728 49.769 13.9112 49.6323 14.6963C49.4932 15.4513 49.5075 16.2266 49.6741 16.976C49.8408 17.7254 50.1564 18.4335 50.6023 19.058C50.5627 19.1968 50.5231 19.3356 50.4901 19.4744C50.2221 20.6157 50.0892 21.7847 50.0942 22.9572H51.4139C51.4759 21.9975 51.606 21.0434 51.8032 20.1022C52.7187 20.5973 53.7453 20.8498 54.7857 20.8358C55.756 20.8351 56.7163 20.6396 57.6098 20.2608C62.6312 18.113 61.9714 10.969 61.9714 10.6716L61.8922 9.83887ZM57.0951 19.0448C55.3729 19.7784 53.3142 19.6528 52.1595 18.7474C52.3547 18.0938 52.6225 17.4643 52.9579 16.8705C53.2187 16.4432 53.5263 16.0464 53.8751 15.6876C54.2315 15.3249 54.6329 15.0095 55.0694 14.7491C55.9715 14.2089 56.9719 13.854 58.0123 13.705V13.0441C56.8152 13.0026 55.6255 13.2473 54.5415 13.7578C53.4333 14.2994 52.4934 15.1334 51.823 16.17C51.5743 16.5659 51.3538 16.9789 51.1631 17.4058C50.8573 16.6223 50.7706 15.77 50.9124 14.9408C51.0053 14.3602 51.2442 13.8129 51.6067 13.3504C51.9692 12.888 52.4433 12.5255 52.9843 12.2973C53.7732 11.928 54.6341 11.7384 55.5049 11.7422C55.914 11.7422 56.3165 11.7818 56.7388 11.8149C58.0614 11.9858 59.4042 11.9073 60.6979 11.5836C60.6517 13.4076 60.3218 17.6702 57.0951 19.0448Z" fill="#69BF8E"/>
<path d="M6.98686 22.3051H6.26523L6.29196 15.7035C6.41669 14.2424 6.93341 13.2535 7.84213 12.7368C8.12722 12.5764 8.41231 12.4963 8.6974 12.4963C9.42794 12.4963 9.94466 12.9328 10.2476 13.8059C10.3723 14.1979 10.4347 14.6433 10.4347 15.1422V20.8618C10.4347 21.5924 10.2654 22.0289 9.92684 22.1715C9.73084 22.2606 9.43685 22.3051 9.04485 22.3051V23H14.7377C14.7377 22.608 14.6219 22.3853 14.3903 22.3318C14.2834 22.314 14.1764 22.3051 14.0695 22.3051H13.3746V15.5431V15.1957C13.5706 13.8772 14.0963 13.013 14.9515 12.6032C15.1832 12.4963 15.4148 12.4428 15.6464 12.4428C16.4661 12.4428 17.0362 12.8972 17.357 13.8059C17.4817 14.2157 17.5441 14.6612 17.5441 15.1422V20.8618C17.5441 21.5924 17.3748 22.0289 17.0362 22.1715C16.8402 22.2606 16.5462 22.3051 16.1542 22.3051V23H22.1678C22.1678 22.608 22.052 22.3853 21.8204 22.3318C21.7135 22.314 21.6066 22.3051 21.4997 22.3051H20.484V15.4362C20.484 13.6723 19.896 12.425 18.72 11.6944C18.1855 11.3559 17.6064 11.1866 16.9828 11.1866C15.3079 11.1866 14.0517 11.9974 13.2143 13.6188C13.1786 13.6901 13.1519 13.7524 13.1341 13.8059C12.7421 12.4874 11.9937 11.6588 10.889 11.3203C10.6039 11.2312 10.3099 11.1866 10.007 11.1866C8.43903 11.1866 7.25413 11.8815 6.45232 13.2713C6.38105 13.4139 6.30978 13.5564 6.23851 13.699L6.10487 11.5608H1.61472V12.229H3.32526V20.8618C3.32526 21.6458 3.03126 22.1002 2.44326 22.2249C2.21163 22.2784 1.93545 22.3051 1.61472 22.3051V23H7.62831C7.62831 22.5902 7.49468 22.3675 7.22741 22.3318C7.15614 22.314 7.07595 22.3051 6.98686 22.3051ZM29.4109 11.8815C30.5156 11.8815 31.1749 12.5319 31.3887 13.8326C31.4421 14.1177 31.4689 14.4117 31.4689 14.7146C31.4689 15.5521 31.166 16.0777 30.5601 16.2915C30.1681 16.3984 29.598 16.443 28.8496 16.4251L26.7916 16.345C26.8629 13.8148 27.5311 12.3537 28.7962 11.9617C29.01 11.9083 29.2149 11.8815 29.4109 11.8815ZM34.3019 20.3006L33.6605 20.0867C33.1438 21.2093 32.3241 21.9487 31.2016 22.3051C30.8274 22.4298 30.4443 22.4922 30.0523 22.4922C27.9676 22.4922 26.8807 20.7193 26.7916 17.1735C26.7916 17.1557 26.7916 17.1379 26.7916 17.12L29.4911 17.1735C32.1638 17.227 33.7674 16.8439 34.3019 16.0242C34.4801 15.7391 34.5692 15.4006 34.5692 15.0086C34.5692 13.601 33.8565 12.5408 32.431 11.8281C31.5401 11.4005 30.5334 11.1866 29.4109 11.1866C27.3618 11.1866 25.7938 11.9261 24.7069 13.405C23.9407 14.4562 23.5576 15.7302 23.5576 17.227C23.5576 19.668 24.4575 21.4142 26.2571 22.4655C27.2193 23 28.2972 23.2673 29.4911 23.2673C31.5223 23.2673 32.9923 22.5456 33.901 21.1024C34.0614 20.8351 34.195 20.5678 34.3019 20.3006ZM42.0261 11.8815C43.1308 11.8815 43.79 12.5319 44.0039 13.8326C44.0573 14.1177 44.084 14.4117 44.084 14.7146C44.084 15.5521 43.7811 16.0777 43.1753 16.2915C42.7833 16.3984 42.2131 16.443 41.4648 16.4251L39.4068 16.345C39.4781 13.8148 40.1463 12.3537 41.4113 11.9617C41.6251 11.9083 41.8301 11.8815 42.0261 11.8815ZM46.9171 20.3006L46.2757 20.0867C45.7589 21.2093 44.9393 21.9487 43.8168 22.3051C43.4426 22.4298 43.0595 22.4922 42.6675 22.4922C40.5828 22.4922 39.4959 20.7193 39.4068 17.1735C39.4068 17.1557 39.4068 17.1379 39.4068 17.12L42.1062 17.1735C44.7789 17.227 46.3826 16.8439 46.9171 16.0242C47.0953 15.7391 47.1844 15.4006 47.1844 15.0086C47.1844 13.601 46.4717 12.5408 45.0462 11.8281C44.1553 11.4005 43.1486 11.1866 42.0261 11.1866C39.977 11.1866 38.409 11.9261 37.3221 13.405C36.5559 14.4562 36.1728 15.7302 36.1728 17.227C36.1728 19.668 37.0726 21.4142 38.8723 22.4655C39.8344 23 40.9124 23.2673 42.1062 23.2673C44.1375 23.2673 45.6075 22.5456 46.5162 21.1024C46.6766 20.8351 46.8102 20.5678 46.9171 20.3006Z" fill="#69BF8E"/>
<path d="M0 32H61" stroke="#69BF8E"/>
</svg>
